<?xml version="1.0" encoding="UTF-8"?>
<svg version="1.1" xmlns="http://www.w3.org/2000/svg" width="50" height="50">
<path d="M0 0 C0.77915771 0.00202423 1.55831543 0.00404846 2.36108398 0.00613403 C3.15635498 0.00517731 3.95162598 0.00422058 4.77099609 0.00323486 C6.45564859 0.0025531 8.1403037 0.00440711 9.82495117 0.00857544 C12.41257595 0.01392378 15.00002714 0.00863034 17.58764648 0.00222778 C19.22045937 0.00288857 20.85327215 0.00416973 22.48608398 0.00613403 C23.2652417 0.0041098 24.04439941 0.00208557 24.84716797 0 C30.30863294 0.02399549 30.30863294 0.02399549 31.42358398 1.13894653 C31.52304851 2.90753846 31.55438616 4.68006104 31.55639648 6.45144653 C31.55833008 8.06406372 31.55833008 8.06406372 31.56030273 9.70925903 C31.55643555 10.84105591 31.55256836 11.97285278 31.54858398 13.13894653 C31.55438477 14.83664185 31.55438477 14.83664185 31.56030273 16.56863403 C31.55901367 17.64371216 31.55772461 18.71879028 31.55639648 19.82644653 C31.55526855 20.82031372 31.55414063 21.81418091 31.55297852 22.83816528 C31.42358398 25.13894653 31.42358398 25.13894653 30.42358398 26.13894653 C27.76902205 26.23990218 25.14103223 26.27865652 22.48608398 26.27175903 C21.29317749 26.27319412 21.29317749 26.27319412 20.07617188 26.2746582 C18.39151938 26.27533996 16.70686427 26.27348596 15.0222168 26.26931763 C12.43459202 26.26396929 9.84714083 26.26926272 7.25952148 26.27566528 C5.6267086 26.2750045 3.99389582 26.27372334 2.36108398 26.27175903 C1.58192627 26.27378326 0.80276855 26.2758075 0 26.27789307 C-5.46146497 26.25389758 -5.46146497 26.25389758 -6.57641602 25.13894653 C-6.67588054 23.3703546 -6.70721819 21.59783202 -6.70922852 19.82644653 C-6.71051758 18.75136841 -6.71180664 17.67629028 -6.71313477 16.56863403 C-6.70733398 14.87093872 -6.70733398 14.87093872 -6.70141602 13.13894653 C-6.7052832 12.00714966 -6.70915039 10.87535278 -6.71313477 9.70925903 C-6.7118457 8.63418091 -6.71055664 7.55910278 -6.70922852 6.45144653 C-6.70810059 5.45757935 -6.70697266 4.46371216 -6.70581055 3.43972778 C-6.45432325 -1.03200101 -3.86936553 0.01700044 0 0 Z M-1.57641602 1.13894653 C0.37137658 5.03453172 2.2378205 7.3452995 5.23608398 10.45144653 C6.0881543 11.35507935 6.94022461 12.25871216 7.81811523 13.18972778 C10.21095205 15.35577832 10.21095205 15.35577832 12.88452148 15.27175903 C16.33417063 13.7326848 18.6720883 11.39552477 21.23608398 8.70144653 C21.73817383 8.19806763 22.24026367 7.69468872 22.75756836 7.17605591 C25.56512684 4.62013886 25.56512684 4.62013886 26.42358398 1.13894653 C17.18358398 1.13894653 7.94358398 1.13894653 -1.57641602 1.13894653 Z M-4.57641602 3.13894653 C-6.1561931 6.2985007 -5.76088685 9.67358471 -5.76391602 13.13894653 C-5.77616211 13.87629028 -5.7884082 14.61363403 -5.80102539 15.37332153 C-5.80628997 17.29664711 -5.69845048 19.21948916 -5.57641602 21.13894653 C-4.91641602 21.79894653 -4.25641602 22.45894653 -3.57641602 23.13894653 C0.87858398 18.68394653 0.87858398 18.68394653 5.42358398 14.13894653 C3.69394027 10.6796591 2.52820825 8.9948216 -0.13891602 6.38894653 C-0.75895508 5.77535278 -1.37899414 5.16175903 -2.01782227 4.52957153 C-3.35264565 3.02798727 -3.35264565 3.02798727 -4.57641602 3.13894653 Z M28.42358398 4.13894653 C25.45358398 6.77894653 22.48358398 9.41894653 19.42358398 12.13894653 C21.17035317 15.63248491 22.33763614 17.27840416 25.04858398 19.88894653 C25.68022461 20.50254028 26.31186523 21.11613403 26.96264648 21.74832153 C27.44475586 22.20722778 27.92686523 22.66613403 28.42358398 23.13894653 C30.83480766 21.17358936 30.83480766 21.17358936 30.61889648 17.44363403 C30.60559298 15.96694546 30.58173233 14.49032295 30.54858398 13.01394653 C30.53504883 11.88279419 30.53504883 11.88279419 30.52124023 10.72879028 C30.49765269 8.86537399 30.46178117 7.00212061 30.42358398 5.13894653 C29.76358398 4.80894653 29.10358398 4.47894653 28.42358398 4.13894653 Z M7.42358398 15.13894653 C5.92060522 16.61508639 4.42127113 18.0949381 2.92358398 19.57644653 C2.08827148 20.40015747 1.25295898 21.22386841 0.39233398 22.07254028 C-1.69138133 23.78392752 -1.69138133 23.78392752 -1.57641602 25.13894653 C7.66358398 25.13894653 16.90358398 25.13894653 26.42358398 25.13894653 C24.61697198 21.52572253 23.75939427 20.30145862 20.79858398 17.88894653 C20.16694336 17.36816528 19.53530273 16.84738403 18.88452148 16.31082153 C18.40241211 15.92410278 17.92030273 15.53738403 17.42358398 15.13894653 C16.43358398 15.63394653 16.43358398 15.63394653 15.42358398 16.13894653 C9.88512245 16.36971576 9.88512245 16.36971576 7.42358398 15.13894653 Z " fill="#000000" transform="translate(12.576416015625,11.861053466796875)"/>
</svg>
