<svg xmlns="http://www.w3.org/2000/svg" width="64" height="64" viewBox="0 0 64 64">
<g>
<path d="M 12.44 48.25 C13.67,41.23 19.60,35.01 27.50,32.45 L 29.50 31.80 L 27.50 31.01 C23.14,29.29 20.50,25.11 20.50,19.94 C20.50,15.74 20.97,14.57 23.77,11.77 C26.58,8.96 27.73,8.50 32.00,8.50 C36.27,8.50 37.42,8.96 40.23,11.77 C43.03,14.57 43.50,15.74 43.50,19.94 C43.50,25.11 40.86,29.29 36.50,31.01 L 34.50 31.80 L 36.50 32.45 C44.40,35.01 50.33,41.23 51.56,48.25 C52.13,51.50 51.97,52.00 50.32,52.00 C48.92,52.00 48.11,50.85 47.25,47.64 C43.19,32.48 20.81,32.48 16.75,47.64 C15.89,50.85 15.08,52.00 13.68,52.00 C12.03,52.00 11.87,51.50 12.44,48.25 ZM 37.55 25.55 C42.51,20.59 38.99,12.00 32.00,12.00 C27.89,12.00 24.00,15.89 24.00,20.00 C24.00,26.99 32.59,30.51 37.55,25.55 Z" fill="rgba(0,0,0,1)"/>
</g>
</svg>